<svg xmlns="http://www.w3.org/2000/svg" width="219" height="219" viewBox="0 0 219.3 219.3"><style type="text/css">  
	.st0{fill:#EF7B1D;}
	.st1{fill:#FFFFFF;}
</style><circle class="st0" cx="109.7" cy="109.7" r="109.7"/><path class="st1" d="M167 68c-2.7-11.5-7.4-19.6-13.8-24.2 -1.8-1.3-18.1-12.4-33.6-6.3l-0.7 0.3 1 2.7 0.8-0.4c0.1 0 9.6-4.4 20.3 1.5 4.2 2.3 5.4 5.2 6.6 9 1.5 4.6 2.2 7.4 4.1 14.7l3.5 17.3 0.2 1.7c1.4 9.5 1.7 11.5 0.9 14.6 -1.6 6.5-7.8 11.7-18.5 15.3l-0.6 0.2 0.3 2.5 0.9-0.2c12.1-2.9 24.4-13 27.8-20.2C169.6 89.5 169.8 79.9 167 68z"/><path class="st1" d="M100.7 125.1c-0.5 0.1-1.1 0.2-1.6 0.4L97 125.9c-2.8 0.6-5.5 1.2-8.3 1.8l0 0c-3.6 0.9-7.4 2-10.7 3.8 -1.7 1-3.2 2.5-4.4 3.9 -1.5 1.9-2.5 3.5-3 4.9l-0.3 0.8 2.3 0.7 0.3-0.6c0.7-1.5 1.6-2.8 3-4.2 1.2-1.2 2.4-1.8 3.9-2.6 1.5-0.8 2.8-1.2 4.4-1.7l1-0.3c1.3-0.4 2.7-0.8 4.1-1.1 3.8-0.9 6.9-1.7 10.1-2.5 3.8-1 7.9-2.4 10.6-3.4l0.5-0.2v-2.6l-1.1 0.4C106.6 123.9 103.7 124.5 100.7 125.1z"/><path class="st1" d="M73 167.6c-0.6-0.3-0.7-0.5-0.9-0.6 -0.1-0.1-0.1-0.1-0.2-0.2 -1.8-1.8-4-4.7-2.5-9.4l0.3-0.9 -2.7-0.5 -0.2 0.8c0 0-0.7 3.1-3.2 6.2 -2.3 2.6-5.2 3.9-9.4 5.1 -2.7 0.7-7 1.1-7 1.1l-0.7 0.1v2.4h33.5l0.8 0v-2.2l-0.8 0C79.8 169.4 75.9 169.2 73 167.6z"/><path class="st1" d="M137 163.2c-1-1.4-1.7-2.9-2.2-4.5l-0.1-0.5c-0.1-0.2-0.1-0.4-0.2-0.7L106.8 41.8l-5.5 13.4 23.3 103.3 -0.1 0 0.4 1.4c0.2 0.7 0.3 1.3 0.3 1.9 0 3-1.8 4.5-4.7 6.1l-0.6 0.3c-1.5 0.8-2 1-3.6 1.1l-0.8 0v2.3h36.2v-2.3l-0.8 0C150.7 169.3 142.2 168.9 137 163.2z"/></svg>