<?xml version="1.0" encoding="utf-8"?>
<!-- Generator: Adobe Illustrator 25.2.3, SVG Export Plug-In . SVG Version: 6.00 Build 0)  -->
<svg version="1.1" xmlns="http://www.w3.org/2000/svg" xmlns:xlink="http://www.w3.org/1999/xlink" x="0px" y="0px"
	 width="219.33px" height="219.33px" viewBox="0 0 219.33 219.33" style="enable-background:new 0 0 219.33 219.33;"
	 xml:space="preserve">
<style type="text/css">
	.st0{fill:#EF7B1D;}
	.st1{fill:#FFFFFF;}
</style>
<g id="Layer_1">
	<circle class="st0" cx="109.67" cy="109.67" r="109.67"/>
</g>
<g id="P_Bowl">
	<path class="st1" d="M167,68.03c-2.75-11.48-7.39-19.63-13.81-24.21c-1.8-1.29-18.07-12.41-33.59-6.33l-0.73,0.29l1.02,2.74
		l0.79-0.37c0.09-0.04,9.56-4.4,20.28,1.49c4.18,2.3,5.35,5.18,6.56,8.99c1.45,4.6,2.21,7.42,4.05,14.71l3.54,17.34l0.24,1.66
		c1.4,9.48,1.69,11.46,0.93,14.62c-1.57,6.52-7.8,11.68-18.52,15.33l-0.62,0.21l0.33,2.54l0.86-0.21
		c12.09-2.89,24.37-12.97,27.84-20.21C169.56,89.53,169.84,79.9,167,68.03z"/>
</g>
<g id="Crossbar">
	<path class="st1" d="M100.74,125.1c-0.54,0.11-1.09,0.23-1.63,0.35L97,125.89c-2.82,0.6-5.48,1.16-8.29,1.81l-0.01,0
		c-3.62,0.9-7.42,1.98-10.69,3.81c-1.75,0.96-3.18,2.52-4.36,3.92c-1.53,1.91-2.54,3.54-3.01,4.86l-0.28,0.79l2.32,0.71l0.3-0.62
		c0.73-1.54,1.64-2.8,3.04-4.2c1.15-1.19,2.38-1.85,3.87-2.6c1.54-0.78,2.78-1.2,4.39-1.68l1.01-0.31c1.32-0.4,2.68-0.82,4.06-1.14
		c3.78-0.9,6.9-1.68,10.12-2.53c3.79-0.97,7.87-2.41,10.61-3.41l0.52-0.19v-2.64l-1.06,0.36
		C106.56,123.88,103.73,124.47,100.74,125.1z"/>
</g>
<g id="A_Foot">
	<path class="st1" d="M72.95,167.59c-0.57-0.35-0.69-0.47-0.86-0.64c-0.07-0.07-0.14-0.14-0.24-0.22c-1.8-1.77-4-4.66-2.48-9.37
		l0.28-0.86l-2.72-0.51l-0.16,0.76c-0.01,0.03-0.69,3.13-3.24,6.22c-2.34,2.61-5.24,3.85-9.42,5.11c-2.73,0.68-6.96,1.14-7,1.14
		l-0.71,0.08v2.35h33.45l0.8-0.02v-2.2l-0.76-0.03C79.84,169.39,75.86,169.2,72.95,167.59z"/>
</g>
<g id="Stem">
	<path class="st1" d="M136.95,163.24c-0.99-1.38-1.73-2.88-2.19-4.47l-0.13-0.51c-0.06-0.22-0.11-0.43-0.16-0.68L106.84,41.83
		l-5.5,13.44l23.25,103.29l-0.09-0.03l0.37,1.43c0.18,0.7,0.27,1.32,0.27,1.9c0,2.96-1.82,4.54-4.73,6.12l-0.62,0.31
		c-1.52,0.76-2.04,1.02-3.61,1.05l-0.78,0.01v2.29h36.17v-2.32l-0.76-0.03C150.74,169.29,142.17,168.85,136.95,163.24z"/>
	<g>
	</g>
	<g>
	</g>
	<g>
	</g>
	<g>
	</g>
	<g>
	</g>
	<g>
	</g>
</g>
</svg>
